<svg xmlns="http://www.w3.org/2000/svg" xmlns:xlink="http://www.w3.org/1999/xlink" width="79" height="79" viewBox="0 0 79 79">
    <defs>
        <filter id="b83n9waeoa" width="147.5%" height="147.5%" x="-23.8%" y="-20.5%" filterUnits="objectBoundingBox">
            <feOffset dy="2" in="SourceAlpha" result="shadowOffsetOuter1"/>
            <feGaussianBlur in="shadowOffsetOuter1" result="shadowBlurOuter1" stdDeviation="4.5"/>
            <feColorMatrix in="shadowBlurOuter1" values="0 0 0 0 0 0 0 0 0 0 0 0 0 0 0 0 0 0 0.203889266 0"/>
        </filter>
        <circle id="bzlbw0a5rb" cx="30.5" cy="30.5" r="30.5"/>
    </defs>
    <g fill="none" fill-rule="evenodd">
        <g transform="translate(9 7) matrix(-1 0 0 1 61 0)">
            <use fill="#000" filter="url(#b83n9waeoa)" xlink:href="#bzlbw0a5rb"/>
            <use fill="#130055" xlink:href="#bzlbw0a5rb"/>
        </g>
        <path fill="#FFF" d="M14.946 29.087l.001-.002 6.743-6.71c.505-.502 1.322-.5 1.824.005.503.505.501 1.322-.004 1.825l-4.527 4.505H46.31c.712 0 1.29.577 1.29 1.29 0 .713-.578 1.29-1.29 1.29H18.983l4.527 4.505c.505.503.507 1.32.004 1.825-.502.505-1.32.507-1.825.004l-6.742-6.71c-.506-.505-.505-1.325 0-1.827z" transform="translate(9 7)"/>
    </g>
</svg>
