<svg xmlns="http://www.w3.org/2000/svg" width="142" height="30" viewBox="0 0 142 30">
    <g fill="#FFF" fill-rule="evenodd">
        <path d="M34.677 29.966h-5.373V6.07h5.05v1.97c1.337-1.719 3.224-2.579 5.66-2.579 2.578 0 4.685.908 6.32 2.723 1.636 1.815 2.454 4.144 2.454 6.986 0 2.674-.836 4.913-2.507 6.716-1.671 1.803-3.749 2.705-6.232 2.705-2.22 0-4.011-.752-5.372-2.257v7.63zm4.273-19.51c-1.248 0-2.311.434-3.187 1.302-.877.867-1.315 1.918-1.315 3.153 0 1.283.438 2.37 1.315 3.261.876.891 1.95 1.337 3.223 1.337s2.341-.434 3.206-1.301c.864-.867 1.296-1.942 1.296-3.225 0-1.283-.432-2.358-1.296-3.225-.865-.868-1.945-1.301-3.242-1.301zM64.946 0h5.353v23.894H65.23v-1.899c-1.356 1.672-3.176 2.508-5.46 2.508-2.616 0-4.763-.901-6.44-2.705-1.678-1.803-2.517-4.101-2.517-6.896 0-2.746.84-5.02 2.516-6.824 1.678-1.803 3.789-2.705 6.334-2.705 2.094 0 3.854.705 5.282 2.114V0zm-4.12 10.457c-1.329 0-2.42.421-3.275 1.265-.854.843-1.281 1.918-1.281 3.225 0 1.33.421 2.424 1.264 3.279.842.855 1.916 1.283 3.22 1.283 1.33 0 2.421-.434 3.275-1.301.855-.867 1.282-1.966 1.282-3.297 0-1.259-.427-2.316-1.282-3.171-.854-.856-1.922-1.283-3.203-1.283zm24.665 8.079l.25-.252h5.425c-.832 1.941-2.016 3.463-3.551 4.565-1.535 1.103-3.243 1.654-5.123 1.654-2.617 0-4.836-.929-6.657-2.786-1.82-1.857-2.73-4.116-2.73-6.776 0-2.685.904-4.961 2.712-6.83 1.809-1.87 3.998-2.805 6.568-2.805 2.666 0 4.902.941 6.711 2.822 1.809 1.882 2.713 4.212 2.713 6.992 0 .432-.048.923-.143 1.474H78.28c.12 1.007.542 1.816 1.267 2.427.726.611 1.613.917 2.66.917 1.19 0 2.284-.468 3.284-1.402zm-7.087-5.426h8.105c-.192-.933-.66-1.686-1.405-2.26-.744-.574-1.633-.861-2.665-.861-2.234 0-3.579 1.04-4.035 3.12zM99.98 24.035h-5.365V6.073h5.079v1.904c1.073-1.676 2.706-2.515 4.9-2.515 2.289 0 4.018 1.066 5.186 3.198 1.312-2.132 3.207-3.198 5.687-3.198 1.836 0 3.374.6 4.614 1.797.93.886 1.514 1.963 1.753 3.233.143.67.214 1.916.214 3.736v9.807h-5.365v-9.556c0-1.413-.202-2.43-.608-3.053-.405-.623-1.085-.934-2.039-.934-1.955 0-2.933 1.245-2.933 3.736v9.807h-5.365v-9.807c0-2.49-.918-3.736-2.754-3.736-2.003 0-3.004 1.245-3.004 3.736v9.807zm32.817-7.566l3.487-10.382H142l-9.023 23.879h-5.68l2.84-6.874-6.686-17.005h5.716l3.63 10.382zM24.628 3.649c-4.983 2.03-8.497 6.947-8.497 12.69 0 4.86 2.518 9.13 6.314 11.557-2.215 1.315-4.798 2.07-7.556 2.07C6.666 29.966 0 23.258 0 14.983S6.666 0 14.89 0c3.723 0 7.127 1.375 9.738 3.649zM7.979 18.395v-7.678c-.373-.015-.736-.027-1.081-.037-.193-.006-.351.15-.351.346v8.942c0 .185.141.337.322.347 1.8.098 4.174.204 6.41.754-1.669-1.308-3.495-1.899-4.883-2.163-.242-.047-.417-.261-.417-.511zM9.037 8.153v9.815c1.715.38 3.912 1.21 5.81 3.009V10.676c-1.205-1.528-3.436-2.501-5.4-2.867-.214-.04-.41.125-.41.344zm4.311 7.997c-.15.246-.469.325-.713.174-.28-.173-.999-.586-1.614-.691-.283-.048-.473-.319-.425-.604.047-.285.315-.477.598-.429.765.13 1.57.576 1.981.83.245.15.322.473.173.72zm.012-3.311c-.164.237-.488.295-.722.13-.338-.237-.965-.554-1.617-.666-.283-.048-.473-.318-.425-.603.047-.286.315-.478.598-.43.82.14 1.59.526 2.037.84.235.165.293.491.129.729z"/>
        <g>
            <path d="M16.18 2.703v7.85c0 .254-.174.472-.416.518-1.388.269-3.214.868-4.882 2.195 2.232-.558 4.599-.665 6.41-.766.18-.01.322-.164.322-.35V3.041c0-.194-.152-.351-.34-.352-.303 0-.674.003-1.093.013z" transform="translate(6.547 7.804)"/>
            <path fill-rule="nonzero" d="M14.714.006c-1.955.364-4.197 1.336-5.4 2.866v10.301c1.897-1.798 4.094-2.628 5.81-3.008V.349c0-.219-.197-.383-.41-.343zM13.14 7.829c-.616.105-1.334.518-1.615.691-.244.151-.564.073-.713-.174-.149-.246-.072-.569.173-.72.411-.254 1.217-.7 1.982-.83.282-.048.55.144.598.43.047.285-.143.555-.425.603zm0-3.33c-.653.112-1.28.43-1.617.667-.234.164-.559.107-.723-.13-.164-.238-.106-.565.13-.73.446-.314 1.215-.7 2.037-.84.282-.048.55.145.598.43.047.285-.143.555-.425.604z" transform="translate(6.547 7.804)"/>
        </g>
    </g>
</svg>
